<svg preserveAspectRatio="none" overflow="visible" style="display: block;" width="163.5" height="199.109" viewBox="0 0 163.5 199.109" fill="none" xmlns="http://www.w3.org/2000/svg" xmlns:xlink="http://www.w3.org/1999/xlink">
<g id="Vector 181">
<path d="M55.5 182.059L52.5 184.559L47.5 182.059H40.5H32.5L28.5 179.059L22 175.059L16.5 179.17L8.5 177.559L5 170.559L1 165.559V155.559L5 152.559V141.059V138.559L6 131.559L8.5 129.559V122.059V111.559L5 100.559V87.5589L1 81.0589V73.5589L5 69.5589V58.0589H8.5L13.5 47.5589L22 42.5589L30 40.0589L35.5 36.0589L38.5 28.0589V20.0589V12.5589L45 5.55893H53L58 1.05893L68 2.55893H82H87.5L94 5.55893L102 12.5589L106.5 13.5589L112 20.5589L121 17.5589L130 19.0589L134 24.0589V30.5589L141 29.0589L147 32.5589L154 41.0589L150.5 50.5589L158.5 58.0589V65.0589L162.5 73.5589V81.0589L158.5 87.5589L150.5 100.559L154 114.559L144.5 133.059L140 138.559L130.5 141.059L127 145.059L123.5 159.059L117.5 163.059L109 168.059H100.5L94 170.559L89.5 177.559L87.5 187.559L85 196.559H82L78 198.059L72.5 196.559L68 189.559L63.5 187.559L60.5 184.559H58L55.5 182.059Z" fill="url(#pattern0_0_3464)" fill-opacity="0.2"/>
<path d="M55.5 182.059L52.5 184.559L47.5 182.059H40.5H32.5L28.5 179.059L22 175.059L16.5 179.17L8.5 177.559L5 170.559L1 165.559V155.559L5 152.559V141.059V138.559L6 131.559L8.5 129.559V122.059V111.559L5 100.559V87.5589L1 81.0589V73.5589L5 69.5589V58.0589H8.5L13.5 47.5589L22 42.5589L30 40.0589L35.5 36.0589L38.5 28.0589V20.0589V12.5589L45 5.55893H53L58 1.05893L68 2.55893H82H87.5L94 5.55893L102 12.5589L106.5 13.5589L112 20.5589L121 17.5589L130 19.0589L134 24.0589V30.5589L141 29.0589L147 32.5589L154 41.0589L150.5 50.5589L158.5 58.0589V65.0589L162.5 73.5589V81.0589L158.5 87.5589L150.5 100.559L154 114.559L144.5 133.059L140 138.559L130.5 141.059L127 145.059L123.5 159.059L117.5 163.059L109 168.059H100.5L94 170.559L89.5 177.559L87.5 187.559L85 196.559H82L78 198.059L72.5 196.559L68 189.559L63.5 187.559L60.5 184.559H58L55.5 182.059Z" fill="#3B6DE6" fill-opacity="0.1"/>
<path d="M55.5 182.059L52.5 184.559L47.5 182.059H40.5H32.5L28.5 179.059L22 175.059L16.5 179.17L8.5 177.559L5 170.559L1 165.559V155.559L5 152.559V141.059V138.559L6 131.559L8.5 129.559V122.059V111.559L5 100.559V87.5589L1 81.0589V73.5589L5 69.5589V58.0589H8.5L13.5 47.5589L22 42.5589L30 40.0589L35.5 36.0589L38.5 28.0589V20.0589V12.5589L45 5.55893H53L58 1.05893L68 2.55893H82H87.5L94 5.55893L102 12.5589L106.5 13.5589L112 20.5589L121 17.5589L130 19.0589L134 24.0589V30.5589L141 29.0589L147 32.5589L154 41.0589L150.5 50.5589L158.5 58.0589V65.0589L162.5 73.5589V81.0589L158.5 87.5589L150.5 100.559L154 114.559L144.5 133.059L140 138.559L130.5 141.059L127 145.059L123.5 159.059L117.5 163.059L109 168.059H100.5L94 170.559L89.5 177.559L87.5 187.559L85 196.559H82L78 198.059L72.5 196.559L68 189.559L63.5 187.559L60.5 184.559H58L55.5 182.059Z" stroke="#10288C" stroke-width="2"/>
</g>
<defs>
<pattern id="pattern0_0_3464" patternUnits="userSpaceOnUse" patternTransform="matrix(16 0 0 16 1 1.05893)" preserveAspectRatio="none" viewBox="0 0 16 16" width="1" height="1">
<g id="pattern0_0_3464_inner">
<path id="Intersect" d="M16 4.24219L4.24219 16H0V11.7578L11.7578 0H16V4.24219ZM16 16H11.7578L16 11.7578V16ZM0 4.24219V0H4.24219L0 4.24219Z" fill="#1F3AB5"/>
</g>
</pattern></defs>
</svg>
