<svg width="16" height="16" viewBox="0 0 16 16" fill="none" xmlns="http://www.w3.org/2000/svg">
<path d="M13.9998 10.2499C14.4139 10.2499 14.7497 10.5857 14.7498 10.9999V13.9999C14.7498 14.4141 14.414 14.7499 13.9998 14.7499C13.5856 14.7498 13.2498 14.414 13.2498 13.9999V13.2499H10.7498V13.4999C10.7498 13.9141 10.414 14.2499 9.99976 14.2499C9.5856 14.2498 9.24976 13.914 9.24976 13.4999V13.2499H6.74976V13.4999C6.74976 13.9141 6.41397 14.2499 5.99976 14.2499C5.5856 14.2498 5.24976 13.914 5.24976 13.4999V13.2499H2.74976V13.9999C2.74976 14.4141 2.41397 14.7499 1.99976 14.7499C1.5856 14.7498 1.24976 14.414 1.24976 13.9999V10.9999C1.24983 10.5858 1.58565 10.25 1.99976 10.2499C2.41392 10.2499 2.74968 10.5857 2.74976 10.9999V11.7499H5.24976V11.4999C5.24983 11.0858 5.58565 10.75 5.99976 10.7499C6.41392 10.7499 6.74968 11.0857 6.74976 11.4999V11.7499H9.24976V11.4999C9.24983 11.0858 9.58565 10.75 9.99976 10.7499C10.4139 10.7499 10.7497 11.0857 10.7498 11.4999V11.7499H13.2498V10.9999C13.2498 10.5858 13.5856 10.25 13.9998 10.2499ZM1.67847 1.32214C2.05253 1.14481 2.49986 1.30464 2.67749 1.67859L3.56323 3.5448L4.35522 4.54578L6.09253 5.64343C6.21247 5.71923 6.309 5.82778 6.36987 5.95593L7.22241 7.75281L7.53784 8.01843L7.93726 7.6825L9.28589 6.16785L10.6707 4.61218L10.7605 4.52625C10.7926 4.50041 10.827 4.47718 10.863 4.45691L11.2283 5.10925H11.2292L10.863 4.45691L12.2478 3.67957L12.3357 3.63757C12.5448 3.55354 12.7826 3.56759 12.9822 3.67957L14.3669 4.45691C14.728 4.65974 14.8568 5.11728 14.6541 5.47839C14.4512 5.83953 13.9937 5.96739 13.6326 5.76453L12.615 5.19324L11.7068 5.70203L10.406 7.16492L9.02124 8.72058L8.46069 8.22156L8.94409 8.79578L8.02124 9.57312C7.77678 9.77909 7.43384 9.80495 7.16479 9.65027L7.05542 9.57312L6.13159 8.79578L6.073 8.74109C6.01767 8.68327 5.97172 8.61643 5.93726 8.54382L5.10718 6.7948L3.44507 5.745C3.37361 5.69979 3.31003 5.64236 3.25757 5.57605L3.84546 5.11121L3.84644 5.10925L3.25757 5.57605L2.33472 4.41003C2.29965 4.36569 2.26912 4.31657 2.24487 4.2655L1.32202 2.32117C1.14479 1.9471 1.30449 1.49972 1.67847 1.32214ZM9.02124 8.72058C8.99742 8.74734 8.97149 8.77269 8.94409 8.79578L8.46167 8.22253L9.02124 8.72058Z" fill="black"/>
</svg>
